<?xml version="1.0" standalone="no"?>
<!DOCTYPE svg PUBLIC "-//W3C//DTD SVG 20010904//EN"
 "http://www.w3.org/TR/2001/REC-SVG-20010904/DTD/svg10.dtd">
<svg version="1.0" xmlns="http://www.w3.org/2000/svg"
 width="1080.000000pt" height="1080.000000pt" viewBox="0 0 1080.000000 1080.000000"
 preserveAspectRatio="xMidYMid meet">
<metadata>
Created by potrace 1.14, written by Peter Selinger 2001-2017
</metadata>
<g transform="translate(0.000000,1080.000000) scale(0.100000,-0.100000)"
fill="#000000" stroke="none">
<path d="M2847 7920 c-104 -5 -110 -6 -133 -33 l-24 -28 3 -2447 c1 -1346 6
-2455 10 -2464 5 -9 20 -24 33 -33 22 -14 155 -15 1347 -14 2444 2 3789 7
3814 14 56 14 53 -136 53 2504 1 2201 -1 2433 -15 2461 -9 17 -28 35 -43 41
-27 10 -4820 9 -5045 -1z m4777 -306 c14 -14 16 -242 16 -2197 0 -1200 -4
-2187 -8 -2194 -10 -16 -4606 -31 -4616 -15 -9 15 -8 4394 2 4404 4 4 608 9
1342 10 734 2 1766 4 2292 5 852 2 959 1 972 -13z"/>
<path d="M3230 7322 c-8 -3 -18 -10 -22 -16 -13 -19 -8 -412 5 -430 10 -14 45
-16 242 -18 l230 -3 5 -1670 5 -1670 268 -3 c179 -2 273 1 282 8 10 8 12 334
12 1670 0 913 2 1662 5 1666 8 7 429 6 437 -2 3 -3 8 -756 11 -1672 l5 -1667
199 -3 c118 -1 203 1 209 7 6 6 9 324 8 840 l-1 830 271 3 c189 2 273 0 280
-8 5 -7 10 -355 12 -835 l3 -824 238 -3 c148 -1 243 1 251 8 9 7 12 133 13
507 1 274 1 553 2 621 0 67 4 122 9 122 5 0 33 -48 61 -107 29 -60 103 -211
165 -338 62 -126 130 -266 150 -310 61 -129 224 -469 234 -485 7 -13 54 -15
308 -18 233 -2 303 1 311 10 7 10 -6 44 -49 128 -94 183 -690 1382 -815 1637
l-113 233 36 62 c20 35 53 92 74 128 21 36 52 90 69 120 70 127 104 188 126
230 14 25 34 61 46 80 38 63 155 264 171 295 9 17 28 53 42 80 14 28 45 84 69
125 24 41 67 116 95 165 28 50 73 128 101 175 27 47 60 108 74 137 14 29 38
72 54 95 74 109 77 108 -264 108 -329 0 -296 11 -366 -121 -173 -323 -224
-418 -241 -449 -11 -19 -33 -60 -50 -90 -16 -30 -38 -68 -47 -85 -10 -16 -50
-93 -90 -170 -116 -225 -141 -268 -151 -258 -5 5 -10 269 -11 588 l-3 580
-247 3 c-137 1 -248 -1 -249 -5 0 -5 -2 -370 -4 -813 -2 -443 -3 -820 -4 -837
l-1 -33 -274 0 c-265 0 -274 1 -279 20 -3 11 -5 385 -5 832 0 751 -2 813 -17
824 -13 10 -222 13 -944 12 -509 0 -933 -3 -941 -6z"/>
</g>
</svg>
